<?xml version="1.0" encoding="UTF-8"?> <svg xmlns="http://www.w3.org/2000/svg" width="393" height="99" viewBox="0 0 393 99" fill="none"> <path d="M69.6129 57.4994H78.9007V12.6185L118.237 57.4994H128.686V0H119.33V45.4948L79.4471 0H69.6129V57.4994Z" fill="#0821D8"></path> <path d="M139.506 57.4994H148.658V0H139.506V57.4994Z" fill="#0821D8"></path> <path d="M180.429 57.4994H191.356L215.259 0H205.493L185.824 47.2L166.293 0H156.527L180.429 57.4994Z" fill="#0821D8"></path> <path d="M223.872 57.4312H265.462V49.5191H233.023V32.5353H258.223V24.7595H233.023V7.77572H265.462V0H223.872V57.4312Z" fill="#0821D8"></path> <path d="M271.839 57.4994H280.991V7.77572H302.708C304.62 7.77572 306.669 8.04856 308.513 8.3896C315.205 9.82196 317.459 13.3688 317.459 18.6208C317.459 25.8509 312.61 29.2613 302.776 29.3295H288.913L289.049 37.1734H302.844C304.21 37.1734 305.644 37.1052 307.01 36.9688L317.322 57.4994H327.43L315.888 34.7861C323.947 31.3075 326.61 25.1688 326.61 18.6208C326.61 7.29827 318.21 0 302.844 0H271.839V57.4994Z" fill="#0821D8"></path> <path d="M333.795 57.4994H343.561L348.956 44.8809H374.976L380.234 57.4994H390L366.234 0H357.697L333.795 57.4994ZM351.893 37.037L362 12.141L372.039 37.037H351.893Z" fill="#0821D8"></path> <path d="M30.1821 55.9001C29.173 55.327 4 53.9965 4 33.0348V0H56.5938V33.0348C56.5938 53.9965 32.8817 55.327 31.8727 55.9001L31.0274 56.377L30.1821 55.9001Z" fill="#FF2367"></path> <path d="M44.9063 23.8431L36.5786 24.9156H33.8032V20.0567H35.4684L42.1301 21.1292L41.2281 17.3427L42.1301 13.5562L35.4684 14.6284H33.8032V12.9873L34.8997 4.84546L31.0274 5.94849L27.155 4.84546L28.2516 12.9873V14.6284H26.5856L19.9242 13.5562L20.8263 17.3427L19.9242 21.1292L26.5856 20.0567H28.2516V24.9156H25.4758L17.1485 23.8431L18.2762 27.6292L17.1485 31.4156L25.4758 30.3431H28.2516V42.8408H33.8032V30.3431H36.5786L44.9063 31.4156L43.7785 27.6292L44.9063 23.8431Z" fill="white"></path> <path d="M31.0274 37.4567C27.5465 37.4567 24.5612 39.4978 23.2769 42.4078C23.0502 42.3897 22.8333 42.3421 22.6024 42.3421C18.1163 42.3421 14.4839 45.7402 14.2266 50.0132C23.2769 51.5 29.5977 52.5856 30.1917 52.9158L31.0274 53.377L31.863 52.9158C32.4571 52.5856 36.5 52 47.8282 50.0132C47.5709 45.7402 43.9384 42.3421 39.4524 42.3421C39.2214 42.3421 39.0046 42.3897 38.7778 42.4078C37.4936 39.4978 34.5082 37.4567 31.0274 37.4567Z" fill="#0D3FFB"></path> <path d="M30.5269 59C43.7758 59 53.4734 51.9746 57.9124 43.1757C60.0295 39.0832 60.9856 34.7179 60.9856 30.3526V0H51.766V30.3526C51.766 40.311 44.5953 51.1561 30.5269 51.1561C16.4586 51.1561 9.21954 40.311 9.21954 30.3526V0H0V30.3526C0 34.7179 0.9561 39.0832 3.07318 43.1757C7.51222 51.9746 17.2098 59 30.5269 59Z" fill="#0821D8"></path> <path d="M9.02 92.866C10.5013 92.866 11.6747 92.3527 12.54 91.326C13.42 90.2847 13.86 88.906 13.86 87.19V87.014C13.86 85.3567 13.42 84.0073 12.54 82.966C11.6747 81.91 10.4867 81.382 8.976 81.382C7.45067 81.382 6.248 81.8953 5.368 82.922C4.50267 83.9487 4.07 85.32 4.07 87.036V87.212C4.07 88.9133 4.532 90.2847 5.456 91.326C6.38 92.3527 7.568 92.866 9.02 92.866ZM8.976 95.22C6.6 95.22 4.67867 94.4647 3.212 92.954C1.74533 91.4433 1.012 89.5367 1.012 87.234V87.058C1.012 84.7407 1.75267 82.8267 3.234 81.316C4.73 79.8053 6.644 79.05 8.976 79.05C11.308 79.05 13.2073 79.798 14.674 81.294C16.1553 82.7753 16.896 84.6747 16.896 86.992V87.168C16.896 89.4853 16.1627 91.4067 14.696 92.932C13.244 94.4573 11.3373 95.22 8.976 95.22ZM34.484 90.27C34.484 91.7953 34 92.9687 33.032 93.79C32.064 94.5967 30.6706 95 28.852 95H23.242V79.27H33.12V81.58H26.146V85.562H28.918C30.6926 85.562 32.064 85.9507 33.032 86.728C34 87.4907 34.484 88.642 34.484 90.182V90.27ZM28.764 92.756C30.7 92.756 31.668 91.92 31.668 90.248V90.16C31.668 88.5027 30.6633 87.674 28.654 87.674H26.146V92.756H28.764ZM40.6624 79.27H45.7224C47.541 79.27 48.9637 79.6807 49.9904 80.502C51.0317 81.3233 51.5524 82.5333 51.5524 84.132V84.22C51.5524 85.8187 51.0317 87.0213 49.9904 87.828C48.949 88.62 47.5484 89.016 45.7884 89.016H43.5884V95H40.6624V79.27ZM45.7224 86.904C47.7024 86.904 48.6924 86.0093 48.6924 84.22V84.132C48.6924 82.4013 47.7024 81.536 45.7224 81.536H43.5884V86.904H45.7224ZM60.5409 79.27H64.3689L69.5609 95H66.5249L65.2709 91.106H59.2649L58.0329 95H55.2829L60.5409 79.27ZM59.9469 88.972H64.5889L62.2789 81.668L59.9469 88.972ZM80.2388 95.22C78.4641 95.22 77.0561 94.7433 76.0148 93.79C74.9735 92.8367 74.3648 91.5387 74.1888 89.896H76.9828C77.2761 91.876 78.3688 92.866 80.2608 92.866C81.2435 92.866 81.9915 92.6387 82.5048 92.184C83.0181 91.7147 83.2748 91.062 83.2748 90.226C83.2748 89.4047 83.0475 88.818 82.5928 88.466C82.1381 88.0993 81.3681 87.916 80.2828 87.916H78.5008V85.892H80.2388C81.9108 85.892 82.7468 85.1147 82.7468 83.56C82.7468 82.856 82.5341 82.3207 82.1088 81.954C81.6835 81.5727 81.0748 81.382 80.2828 81.382C79.4321 81.382 78.7795 81.5947 78.3248 82.02C77.8848 82.4307 77.5768 83.0687 77.4008 83.934H74.6508C74.8415 82.35 75.4281 81.14 76.4108 80.304C77.4081 79.468 78.7355 79.05 80.3928 79.05C81.9621 79.05 83.2308 79.446 84.1988 80.238C85.1815 81.03 85.6728 82.064 85.6728 83.34C85.6728 84.1907 85.4528 84.924 85.0128 85.54C84.5728 86.156 83.9201 86.5887 83.0548 86.838C84.1108 86.9993 84.9101 87.388 85.4528 88.004C86.0101 88.6053 86.2888 89.3973 86.2888 90.38C86.2888 91.8173 85.7241 92.9833 84.5948 93.878C83.4801 94.7727 82.0281 95.22 80.2388 95.22ZM99.7743 92.866C101.256 92.866 102.429 92.3527 103.294 91.326C104.174 90.2847 104.614 88.906 104.614 87.19V87.014C104.614 85.3567 104.174 84.0073 103.294 82.966C102.429 81.91 101.241 81.382 99.7303 81.382C98.205 81.382 97.0023 81.8953 96.1223 82.922C95.257 83.9487 94.8243 85.32 94.8243 87.036V87.212C94.8243 88.9133 95.2863 90.2847 96.2103 91.326C97.1343 92.3527 98.3223 92.866 99.7743 92.866ZM99.7303 95.22C97.3543 95.22 95.433 94.4647 93.9663 92.954C92.4996 91.4433 91.7663 89.5367 91.7663 87.234V87.058C91.7663 84.7407 92.507 82.8267 93.9883 81.316C95.4843 79.8053 97.3983 79.05 99.7303 79.05C102.062 79.05 103.962 79.798 105.428 81.294C106.91 82.7753 107.65 84.6747 107.65 86.992V87.168C107.65 89.4853 106.917 91.4067 105.45 92.932C103.998 94.4573 102.092 95.22 99.7303 95.22ZM113.996 79.27H119.628C123.06 79.27 124.776 80.634 124.776 83.362V83.45C124.776 85.166 123.948 86.2807 122.29 86.794C123.361 87.0287 124.153 87.4467 124.666 88.048C125.18 88.6347 125.436 89.456 125.436 90.512V90.6C125.436 92.052 124.974 93.152 124.05 93.9C123.126 94.6333 121.792 95 120.046 95H113.996V79.27ZM119.694 92.91C121.601 92.91 122.554 92.074 122.554 90.402V90.314C122.554 89.478 122.312 88.862 121.828 88.466C121.344 88.07 120.567 87.872 119.496 87.872H116.856V92.91H119.694ZM119.276 85.892C120.23 85.892 120.912 85.7087 121.322 85.342C121.748 84.9753 121.96 84.3887 121.96 83.582V83.494C121.96 82.746 121.74 82.2033 121.3 81.866C120.86 81.5287 120.171 81.36 119.232 81.36H116.856V85.892H119.276ZM135.508 79.27H139.336L144.528 95H141.492L140.238 91.106H134.232L133 95H130.25L135.508 79.27ZM134.914 88.972H139.556L137.246 81.668L134.914 88.972ZM150.448 79.27H153.374V85.958H160.436V79.27H163.384V95H160.436V88.312H153.374V95H150.448V79.27ZM170.49 95V79.27H173.438V91.062L180.742 79.27H183.69V95H180.742V83.142L173.438 95H170.49ZM190.789 79.27H200.623V81.58H193.715V85.892H199.259V88.092H193.715V92.69H200.997V95H190.789V79.27ZM216.005 79.27H221.637C225.069 79.27 226.785 80.634 226.785 83.362V83.45C226.785 85.166 225.956 86.2807 224.299 86.794C225.37 87.0287 226.162 87.4467 226.675 88.048C227.188 88.6347 227.445 89.456 227.445 90.512V90.6C227.445 92.052 226.983 93.152 226.059 93.9C225.135 94.6333 223.8 95 222.055 95H216.005V79.27ZM221.703 92.91C223.61 92.91 224.563 92.074 224.563 90.402V90.314C224.563 89.478 224.321 88.862 223.837 88.466C223.353 88.07 222.576 87.872 221.505 87.872H218.865V92.91H221.703ZM221.285 85.892C222.238 85.892 222.92 85.7087 223.331 85.342C223.756 84.9753 223.969 84.3887 223.969 83.582V83.494C223.969 82.746 223.749 82.2033 223.309 81.866C222.869 81.5287 222.18 81.36 221.241 81.36H218.865V85.892H221.285ZM249.417 95.22C246.983 95.22 245.091 94.5013 243.741 93.064C242.407 91.6267 241.739 89.6833 241.739 87.234V87.058C241.739 84.7113 242.458 82.79 243.895 81.294C245.333 79.7833 247.159 79.028 249.373 79.028C251.251 79.028 252.798 79.4973 254.015 80.436C255.247 81.3747 255.951 82.7387 256.127 84.528H253.157C252.996 83.4573 252.607 82.6653 251.991 82.152C251.39 81.624 250.525 81.36 249.395 81.36C248.017 81.36 246.909 81.8733 246.073 82.9C245.237 83.912 244.819 85.2907 244.819 87.036V87.212C244.819 88.9867 245.223 90.3727 246.029 91.37C246.836 92.3527 247.965 92.844 249.417 92.844C250.532 92.844 251.441 92.5653 252.145 92.008C252.849 91.436 253.282 90.6073 253.443 89.522H256.303C256.083 91.3847 255.357 92.8 254.125 93.768C252.908 94.736 251.339 95.22 249.417 95.22ZM266.232 89.302C266.071 91.1647 265.675 92.6167 265.044 93.658C264.414 94.6993 263.416 95.22 262.052 95.22C261.73 95.22 261.458 95.1833 261.238 95.11C261.121 95.0807 261.026 95.044 260.952 95V92.492L261.128 92.536C261.334 92.5653 261.51 92.58 261.656 92.58C262.243 92.58 262.676 92.2793 262.954 91.678C263.248 91.062 263.46 90.0867 263.592 88.752C263.812 85.8773 263.922 82.7167 263.922 79.27H274.372V95H271.424V81.624H266.584C266.496 84.7187 266.379 87.278 266.232 89.302ZM288.713 92.866C290.194 92.866 291.368 92.3527 292.233 91.326C293.113 90.2847 293.553 88.906 293.553 87.19V87.014C293.553 85.3567 293.113 84.0073 292.233 82.966C291.368 81.91 290.18 81.382 288.669 81.382C287.144 81.382 285.941 81.8953 285.061 82.922C284.196 83.9487 283.763 85.32 283.763 87.036V87.212C283.763 88.9133 284.225 90.2847 285.149 91.326C286.073 92.3527 287.261 92.866 288.713 92.866ZM288.669 95.22C286.293 95.22 284.372 94.4647 282.905 92.954C281.438 91.4433 280.705 89.5367 280.705 87.234V87.058C280.705 84.7407 281.446 82.8267 282.927 81.316C284.423 79.8053 286.337 79.05 288.669 79.05C291.001 79.05 292.9 79.798 294.367 81.294C295.848 82.7753 296.589 84.6747 296.589 86.992V87.168C296.589 89.4853 295.856 91.4067 294.389 92.932C292.937 94.4573 291.03 95.22 288.669 95.22ZM302.935 79.27H308.567C311.999 79.27 313.715 80.634 313.715 83.362V83.45C313.715 85.166 312.886 86.2807 311.229 86.794C312.3 87.0287 313.092 87.4467 313.605 88.048C314.118 88.6347 314.375 89.456 314.375 90.512V90.6C314.375 92.052 313.913 93.152 312.989 93.9C312.065 94.6333 310.73 95 308.985 95H302.935V79.27ZM308.633 92.91C310.54 92.91 311.493 92.074 311.493 90.402V90.314C311.493 89.478 311.251 88.862 310.767 88.466C310.283 88.07 309.506 87.872 308.435 87.872H305.795V92.91H308.633ZM308.215 85.892C309.168 85.892 309.85 85.7087 310.261 85.342C310.686 84.9753 310.899 84.3887 310.899 83.582V83.494C310.899 82.746 310.679 82.2033 310.239 81.866C309.799 81.5287 309.11 81.36 308.171 81.36H305.795V85.892H308.215ZM324.446 79.27H328.274L333.466 95H330.43L329.176 91.106H323.17L321.938 95H319.188L324.446 79.27ZM323.852 88.972H328.494L326.184 81.668L323.852 88.972ZM339.387 79.27H342.313V86.398L348.341 79.248H351.487L344.975 86.772L351.817 95H348.363L342.313 87.652V95H339.387V79.27ZM357.409 95V79.27H360.357V91.062L367.661 79.27H370.609V95H367.661V83.142L360.357 95H357.409ZM377.708 95V79.27H380.656V91.062L387.96 79.27H390.908V95H387.96V83.142L380.656 95H377.708Z" fill="black"></path> </svg> 